<svg id="Layer_1" data-name="Layer 1" xmlns="http://www.w3.org/2000/svg" viewBox="0 0 587.82 550.63"><defs><style>.cls-1{fill:#ececec;}.cls-2{fill:#f5f5f5;}.cls-3{fill:#f0f0f0;}.cls-4{fill:#e7e7e7;}.cls-10,.cls-13,.cls-18,.cls-19,.cls-5,.cls-8{fill:#007cff;}.cls-13,.cls-6,.cls-9{opacity:0.3;}.cls-12,.cls-14,.cls-16,.cls-17,.cls-20,.cls-7,.cls-9{fill:#fff;}.cls-7{opacity:0.7;}.cls-11,.cls-12,.cls-8{opacity:0.2;}.cls-10{opacity:0.4;}.cls-14{opacity:0.8;}.cls-15{fill:#1a2e35;}.cls-17,.cls-19{opacity:0.5;}.cls-18,.cls-20{opacity:0.6;}</style></defs><polygon class="cls-1" points="84.61 153.93 87.09 158.95 92.62 159.75 88.62 163.65 89.56 169.16 84.61 166.56 79.67 169.16 80.61 163.65 76.61 159.75 82.14 158.95 84.61 153.93"/><polygon class="cls-2" points="579.81 389.92 582.28 394.93 587.82 395.74 583.81 399.64 584.76 405.15 579.81 402.55 574.86 405.15 575.81 399.64 571.8 395.74 577.34 394.93 579.81 389.92"/><polygon class="cls-2" points="481.73 535.4 484.2 540.41 489.73 541.22 485.73 545.12 486.68 550.63 481.73 548.03 476.78 550.63 477.72 545.12 473.72 541.22 479.25 540.41 481.73 535.4"/><path class="cls-1" d="M463.43,297.88l.92,1.86,2,.3a.63.63,0,0,1,.35,1.07l-1.49,1.44.36,2.05a.63.63,0,0,1-.91.66l-1.84-1-1.83,1a.63.63,0,0,1-.91-.66l.35-2.05L459,301.11a.63.63,0,0,1,.35-1.07l2.05-.3.92-1.86A.63.63,0,0,1,463.43,297.88Z" transform="translate(-206.09 -232.83)"/><path class="cls-2" d="M210.72,744.43l.92,1.86,2.05.3a.62.62,0,0,1,.35,1.06l-1.49,1.45.35,2a.62.62,0,0,1-.9.65l-1.84-1-1.84,1a.61.61,0,0,1-.9-.65l.35-2-1.49-1.45a.62.62,0,0,1,.35-1.06l2.05-.3.92-1.86A.62.62,0,0,1,210.72,744.43Z" transform="translate(-206.09 -232.83)"/><path class="cls-1" d="M252,278.22l.92,1.86,2.05.29a.63.63,0,0,1,.35,1.07l-1.49,1.45.35,2a.63.63,0,0,1-.91.66l-1.83-1-1.84,1a.63.63,0,0,1-.91-.66l.35-2-1.48-1.45a.63.63,0,0,1,.34-1.07l2.06-.29.92-1.86A.62.62,0,0,1,252,278.22Z" transform="translate(-206.09 -232.83)"/><path class="cls-1" d="M249.51,647a2,2,0,1,1-2-2A2,2,0,0,1,249.51,647Z" transform="translate(-206.09 -232.83)"/><path class="cls-1" d="M539.52,392.35a2,2,0,1,1-2-2A2,2,0,0,1,539.52,392.35Z" transform="translate(-206.09 -232.83)"/><path class="cls-2" d="M434,279.9a2,2,0,1,1-2-2A2,2,0,0,1,434,279.9Z" transform="translate(-206.09 -232.83)"/><circle class="cls-3" cx="434.66" cy="764.88" r="11.24" transform="translate(-370.2 -112.51) rotate(-13.28)"/><path class="cls-4" d="M430.77,758.32a10.86,10.86,0,0,0-6.41,2.08,11.23,11.23,0,0,0,16.06,14.13s0,0,0,0a10.86,10.86,0,0,0,1.32-5.23A11,11,0,0,0,430.77,758.32Z" transform="translate(-206.09 -232.83)"/><path class="cls-5" d="M343.69,569.45H250.57v-42l93.12-110.68h44.54V529.79h23.09v39.66H388.23v34.38H343.69Zm0-39.66V471.9l-49.2,57.89Z" transform="translate(-206.09 -232.83)"/><path class="cls-5" d="M427.26,511.1q0-52.46,18.88-73.41t57.54-21q18.57,0,30.49,4.58a56.55,56.55,0,0,1,19.45,11.92,63.67,63.67,0,0,1,11.86,15.44,79.81,79.81,0,0,1,7,18.89,176.26,176.26,0,0,1,5.15,42.91q0,50.07-16.94,73.28T502.3,607q-23.22,0-37.52-7.41a60.74,60.74,0,0,1-23.47-21.7q-6.65-10.17-10.35-27.8A189.77,189.77,0,0,1,427.26,511.1Zm50.69.12q0,35.14,6.21,48t18,12.86a18.87,18.87,0,0,0,13.49-5.46q5.72-5.45,8.41-17.25t2.7-36.77q0-36.63-6.21-49.25t-18.64-12.61q-12.68,0-18.32,12.86T478,511.22Z" transform="translate(-206.09 -232.83)"/><path class="cls-5" d="M686.51,569.45H593.4v-42l93.11-110.68h44.55V529.79h23.09v39.66H731.06v34.38H686.51Zm0-39.66V471.9l-49.2,57.89Z" transform="translate(-206.09 -232.83)"/><g class="cls-6"><path class="cls-5" d="M425.19,352.14a2.86,2.86,0,1,1-2.85-2.85A2.86,2.86,0,0,1,425.19,352.14Z" transform="translate(-206.09 -232.83)"/><circle class="cls-5" cx="23.28" cy="227.19" r="2.02"/><circle class="cls-5" cx="356.96" cy="521.27" r="2.9"/><circle class="cls-5" cx="426.49" cy="404.48" r="2.02"/><path class="cls-5" d="M766.73,275.64a2,2,0,1,1-2-2A2,2,0,0,1,766.73,275.64Z" transform="translate(-206.09 -232.83)"/><path class="cls-5" d="M382.05,234.86a2,2,0,1,1-2-2A2,2,0,0,1,382.05,234.86Z" transform="translate(-206.09 -232.83)"/><circle class="cls-5" cx="336.52" cy="106.04" r="2.02"/></g><circle class="cls-5" cx="127.73" cy="74.54" r="33.52"/><circle class="cls-7" cx="127.73" cy="74.54" r="33.52"/><path class="cls-8" d="M322.27,282.08a33.63,33.63,0,0,0-13.22,2.71,33.54,33.54,0,0,0,38.05,53.38v0a33.54,33.54,0,0,0-24.83-56.07Z" transform="translate(-206.09 -232.83)"/><path class="cls-8" d="M318.94,291a3.07,3.07,0,1,1-3.07-3.07A3.07,3.07,0,0,1,318.94,291Z" transform="translate(-206.09 -232.83)"/><path class="cls-8" d="M355,287.88a3.07,3.07,0,1,1-3.06-3.06A3.06,3.06,0,0,1,355,287.88Z" transform="translate(-206.09 -232.83)"/><path class="cls-8" d="M348.85,309.73a5,5,0,1,1-5-5A5,5,0,0,1,348.85,309.73Z" transform="translate(-206.09 -232.83)"/><path class="cls-8" d="M332.92,324a6.71,6.71,0,1,1-6.71-6.7A6.71,6.71,0,0,1,332.92,324Z" transform="translate(-206.09 -232.83)"/><circle class="cls-5" cx="702.5" cy="705.02" r="29.42" transform="translate(-351.15 993.91) rotate(-76.72)"/><circle class="cls-9" cx="702.5" cy="705.02" r="29.42" transform="translate(-351.15 993.91) rotate(-76.72)"/><path class="cls-10" d="M721.07,682.2a29.42,29.42,0,0,0-27,51,29.42,29.42,0,0,0,27-51Z" transform="translate(-206.09 -232.83)"/><path class="cls-5" d="M674.4,713.73c-31.42,14.79-8,26.18,36.28,10.27,41-14.72,56.56-33.3,20-27.55C732.54,704.27,681.21,724.27,674.4,713.73Z" transform="translate(-206.09 -232.83)"/><path class="cls-11" d="M720.71,416.73c-41.14,27.8-94.4,64.46-109.11,152.71h-3.13c14.3-87.18,65.62-124.8,106.78-152.71Z" transform="translate(-206.09 -232.83)"/><path class="cls-5" d="M507.92,692.8c-26,0-51.73-11.72-64.24-30.88-7.73-11.85-16.71-36.65,10-69.74l2.38,1.92c-18.92,23.41-22.42,46.9-9.85,66.14,15.29,23.42,51.4,35.2,82.21,26.82,31.56-8.59,50.72-36,52.57-75.32,6.33-134.35,77.7-175.73,129.82-205.95,32.38-18.77,55.77-32.34,50.63-61-.71-4-2.3-6.72-4.84-8.39-6.66-4.39-19.67-1.35-34.72,2.16-29.54,6.88-70,16.3-94.1-24.69l2.64-1.55c23,39.05,60.56,30.29,90.76,23.25,15.75-3.66,29.34-6.83,37.1-1.73,3.28,2.16,5.3,5.57,6.17,10.41,5.52,30.72-19.91,45.47-52.11,64.14-51.5,29.86-122,70.76-128.29,203.44-1.92,40.7-21.9,69.17-54.83,78.13A81.32,81.32,0,0,1,507.92,692.8Z" transform="translate(-206.09 -232.83)"/><path class="cls-12" d="M507.92,692.8c-26,0-51.73-11.72-64.24-30.88-7.73-11.85-16.71-36.65,10-69.74l2.38,1.92c-18.92,23.41-22.42,46.9-9.85,66.14,15.29,23.42,51.4,35.2,82.21,26.82,31.56-8.59,50.72-36,52.57-75.32,6.33-134.35,77.7-175.73,129.82-205.95,32.38-18.77,55.77-32.34,50.63-61-.71-4-2.3-6.72-4.84-8.39-6.66-4.39-19.67-1.35-34.72,2.16-29.54,6.88-70,16.3-94.1-24.69l2.64-1.55c23,39.05,60.56,30.29,90.76,23.25,15.75-3.66,29.34-6.83,37.1-1.73,3.28,2.16,5.3,5.57,6.17,10.41,5.52,30.72-19.91,45.47-52.11,64.14-51.5,29.86-122,70.76-128.29,203.44-1.92,40.7-21.9,69.17-54.83,78.13A81.32,81.32,0,0,1,507.92,692.8Z" transform="translate(-206.09 -232.83)"/><path class="cls-5" d="M596.26,277.68A70.73,70.73,0,0,1,617,280.94s16.78,28.72,18.82,35.29c-.7,6.49-11.65,17.13-11.65,17.13Z" transform="translate(-206.09 -232.83)"/><path class="cls-9" d="M596.26,277.68A70.73,70.73,0,0,1,617,280.94s16.78,28.72,18.82,35.29c-.7,6.49-11.65,17.13-11.65,17.13Z" transform="translate(-206.09 -232.83)"/><path class="cls-5" d="M646.11,417.19c-6.33-8-12.54-16.21-17.69-25.07-1.28-2.21-2.5-4.47-3.65-6.75-.66-1.3-1.29-2.61-1.9-3.93-.54-1.15-1.73-2.85-1.85-4.11-1.83-19.39,4.8-33.66-1.57-49.22L594.25,338s2.14,27.72,7,44.31c3,10.29,9.9,19.2,16.52,27.45,2.08,2.57,4.07,5.21,6.14,7.8s4.15,4.68,6.11,7.12c3,3.69,4,7.21,1.71,11.57-.12.23-.25.46-.38.69-.64,1.13,2.37,2.42,4.25,0,3.13-3.95,2.64-3.71,5.3-7.07,1.62-2.05,3.48-4.26,5.08-6.17A5.16,5.16,0,0,0,646.11,417.19Z" transform="translate(-206.09 -232.83)"/><path class="cls-7" d="M646.11,417.19c-6.33-8-12.54-16.21-17.69-25.07-1.28-2.21-2.5-4.47-3.65-6.75-.66-1.3-1.29-2.61-1.9-3.93-.54-1.15-1.73-2.85-1.85-4.11-1.83-19.39,4.8-33.66-1.57-49.22L594.25,338s2.14,27.72,7,44.31c3,10.29,9.9,19.2,16.52,27.45,2.08,2.57,4.07,5.21,6.14,7.8s4.15,4.68,6.11,7.12c3,3.69,4,7.21,1.71,11.57-.12.23-.25.46-.38.69-.64,1.13,2.37,2.42,4.25,0,3.13-3.95,2.64-3.71,5.3-7.07,1.62-2.05,3.48-4.26,5.08-6.17A5.16,5.16,0,0,0,646.11,417.19Z" transform="translate(-206.09 -232.83)"/><path class="cls-13" d="M640,409.21c-3.38,4.08-10.24,9.37-13.26,11.51.66.74,1.31,1.48,2,2.23a67.2,67.2,0,0,0,13-11.48C641.09,410.73,640.52,410,640,409.21Z" transform="translate(-206.09 -232.83)"/><path class="cls-13" d="M646.1,417.19c-.05-.07-.12-.14-.17-.22a7.86,7.86,0,0,0-1.94,4.85,7.41,7.41,0,0,0,.58,3.6c.51-.59,1-1.18,1.45-1.73A5.15,5.15,0,0,0,646.1,417.19Z" transform="translate(-206.09 -232.83)"/><path class="cls-5" d="M590.27,296a55.26,55.26,0,0,1-9.76,11,36.78,36.78,0,0,1-6.75,4.56,29.51,29.51,0,0,1-4,1.66l-1,.33-.33.1-.73.2a11.9,11.9,0,0,1-1.34.21,11.45,11.45,0,0,1-3.84-.36,18.47,18.47,0,0,1-4.5-1.93,32.91,32.91,0,0,1-3.29-2.17,57.78,57.78,0,0,1-5.48-4.66,81.36,81.36,0,0,1-9.16-10.31,3.84,3.84,0,0,1,5.13-5.54l.11.07c3.61,2.3,7.26,4.71,10.81,6.88,1.8,1.06,3.55,2.12,5.27,3a22.48,22.48,0,0,0,2.43,1.09,4.75,4.75,0,0,0,1.65.41c.08,0,0-.11-.58-.09a4,4,0,0,0-.52.07l-.34.08.06,0,.5-.26a22.67,22.67,0,0,0,2-1.21,29.42,29.42,0,0,0,3.83-3.24,101.76,101.76,0,0,0,7.5-8.86l0,0A7.65,7.65,0,0,1,590.27,296Z" transform="translate(-206.09 -232.83)"/><path class="cls-7" d="M590.27,296a55.26,55.26,0,0,1-9.76,11,36.78,36.78,0,0,1-6.75,4.56,29.51,29.51,0,0,1-4,1.66l-1,.33-.33.1-.73.2a11.9,11.9,0,0,1-1.34.21,11.45,11.45,0,0,1-3.84-.36,18.47,18.47,0,0,1-4.5-1.93,32.91,32.91,0,0,1-3.29-2.17,57.78,57.78,0,0,1-5.48-4.66,81.36,81.36,0,0,1-9.16-10.31,3.84,3.84,0,0,1,5.13-5.54l.11.07c3.61,2.3,7.26,4.71,10.81,6.88,1.8,1.06,3.55,2.12,5.27,3a22.48,22.48,0,0,0,2.43,1.09,4.75,4.75,0,0,0,1.65.41c.08,0,0-.11-.58-.09a4,4,0,0,0-.52.07l-.34.08.06,0,.5-.26a22.67,22.67,0,0,0,2-1.21,29.42,29.42,0,0,0,3.83-3.24,101.76,101.76,0,0,0,7.5-8.86l0,0A7.65,7.65,0,0,1,590.27,296Z" transform="translate(-206.09 -232.83)"/><path class="cls-5" d="M534.33,286l1.8,3s1.37,4,4.11,4.74l7.42-2.4-.37-.63h0c-.95-1.44-.85-4.24-.51-6.56s-.87-2.41-1.76-1.83a5.77,5.77,0,0,0-1.3,2.54,11.8,11.8,0,0,0-1.2-1.43l-2.27-2.26a2.61,2.61,0,0,0-3.58-.1l-1.84,1.63A2.62,2.62,0,0,0,534.33,286Z" transform="translate(-206.09 -232.83)"/><path class="cls-7" d="M534.33,286l1.8,3s1.37,4,4.11,4.74l7.42-2.4-.37-.63h0c-.95-1.44-.85-4.24-.51-6.56s-.87-2.41-1.76-1.83a5.77,5.77,0,0,0-1.3,2.54,11.8,11.8,0,0,0-1.2-1.43l-2.27-2.26a2.61,2.61,0,0,0-3.58-.1l-1.84,1.63A2.62,2.62,0,0,0,534.33,286Z" transform="translate(-206.09 -232.83)"/><path class="cls-5" d="M603.78,275a90.57,90.57,0,0,0-23.48,9.89,6.61,6.61,0,0,0-3,6.93c2.95,14.44,9.66,33.79,16.91,46.1l33.83-14c.24-6-8-25.28-16.34-43.94C610.23,276.67,607.36,274.17,603.78,275Z" transform="translate(-206.09 -232.83)"/><path class="cls-14" d="M603.78,275a90.57,90.57,0,0,0-23.48,9.89,6.61,6.61,0,0,0-3,6.93c2.95,14.44,9.66,33.79,16.91,46.1l33.83-14c.24-6-8-25.28-16.34-43.94C610.23,276.67,607.36,274.17,603.78,275Z" transform="translate(-206.09 -232.83)"/><path class="cls-13" d="M617,291.85l-6.71-2.25c1.5,3.93,6.94,8.91,10.76,11.83C619.76,298.36,618.39,295.15,617,291.85Z" transform="translate(-206.09 -232.83)"/><path class="cls-5" d="M601.55,259.88c-2.79-5.32-8.83-8-16.09-7.4-6.12.51-11.54,6.76-10.9,10.13s5.79,4.81,6.73,6L577,271.67a4.6,4.6,0,0,0-.91,6.56c1.79,2.26,4.14,4.63,5.51,6.3,11.72-.3,20.4-4.77,23.52-9.08C604,270,604.33,265.18,601.55,259.88Z" transform="translate(-206.09 -232.83)"/><path class="cls-14" d="M601.55,259.88c-2.79-5.32-8.83-8-16.09-7.4-6.12.51-11.54,6.76-10.9,10.13s5.79,4.81,6.73,6L577,271.67a4.6,4.6,0,0,0-.91,6.56c1.79,2.26,4.14,4.63,5.51,6.3,11.72-.3,20.4-4.77,23.52-9.08C604,270,604.33,265.18,601.55,259.88Z" transform="translate(-206.09 -232.83)"/><path class="cls-15" d="M595.8,263.18a11.59,11.59,0,1,1-15-6.57A11.59,11.59,0,0,1,595.8,263.18Z" transform="translate(-206.09 -232.83)"/><path class="cls-5" d="M695.15,401.07c-.17-5-.39-4.53-.54-8.82-.09-2.61-.1-5.49-.11-8a5.15,5.15,0,0,0-4.14-5c-2-.42-4.06-.81-6.08-1.24-2.64-.56-5.25-1.17-7.85-1.92q-3-.87-6-1.94c-2.11-.76-4.19-1.59-6.26-2.48-2.41-1-4.79-2.13-7.15-3.27q-4-1.9-7.87-3.9c-10.07-16.67-10.29-27.66-21.1-40.54l-23.19,10.49s17,30.24,28.65,43.07c6.68,7.38,17.16,10.7,26.51,13.11,6.74,1.75,13.58,3.08,20.43,4.34,2.66.48,5.56.67,7.85,2.26a8.84,8.84,0,0,1,3.27,5.28c.11.43.2.86.28,1.29C692.12,405.08,695.25,404.11,695.15,401.07Z" transform="translate(-206.09 -232.83)"/><path class="cls-14" d="M695.15,401.07c-.17-5-.39-4.53-.54-8.82-.09-2.61-.1-5.49-.11-8a5.15,5.15,0,0,0-4.14-5c-2-.42-4.06-.81-6.08-1.24-2.64-.56-5.25-1.17-7.85-1.92q-3-.87-6-1.94c-2.11-.76-4.19-1.59-6.26-2.48-2.41-1-4.79-2.13-7.15-3.27q-4-1.9-7.87-3.9c-10.07-16.67-10.29-27.66-21.1-40.54l-23.19,10.49s17,30.24,28.65,43.07c6.68,7.38,17.16,10.7,26.51,13.11,6.74,1.75,13.58,3.08,20.43,4.34,2.66.48,5.56.67,7.85,2.26a8.84,8.84,0,0,1,3.27,5.28c.11.43.2.86.28,1.29C692.12,405.08,695.25,404.11,695.15,401.07Z" transform="translate(-206.09 -232.83)"/><path class="cls-13" d="M683.38,377.82l-2.76-.62c.07,5.28-2.41,14.4-3.32,17.17l2.91.55A57.85,57.85,0,0,0,683.38,377.82Z" transform="translate(-206.09 -232.83)"/><path class="cls-13" d="M694.49,384.26a5.15,5.15,0,0,0-4.12-5c-.48-.1-1-.2-1.46-.28a7,7,0,0,0,2.49,4.43,7.9,7.9,0,0,0,3.11,1.75C694.5,384.83,694.49,384.55,694.49,384.26Z" transform="translate(-206.09 -232.83)"/><path class="cls-16" d="M593.64,263.28c.62,2.32-2,4.76-4.06,2.75-1.68-1.63-4.22-4.35-6.29-5.65s.71-3.65,4.05-2.75C590.46,258.47,593,261,593.64,263.28Z" transform="translate(-206.09 -232.83)"/><path class="cls-5" d="M593.82,337.21c-1.08.4.89,2.23.89,2.23s21.37-7.33,34.42-14.87a2.85,2.85,0,0,0-1-2.41A332.14,332.14,0,0,1,593.82,337.21Z" transform="translate(-206.09 -232.83)"/><path class="cls-17" d="M593.82,337.21c-1.08.4.89,2.23.89,2.23s21.37-7.33,34.42-14.87a2.85,2.85,0,0,0-1-2.41A332.14,332.14,0,0,1,593.82,337.21Z" transform="translate(-206.09 -232.83)"/><path class="cls-5" d="M609.57,274c4.22,2.13,8.2,4.38,12.16,6.88,2,1.25,3.94,2.52,5.88,3.9s3.88,2.78,5.81,4.38l.73.59.9.82a18.33,18.33,0,0,1,1.59,1.61c.49.54.9,1.05,1.31,1.57s.81,1,1.17,1.54a67.69,67.69,0,0,1,4,6.15,90.94,90.94,0,0,1,6.07,12.77,3.86,3.86,0,0,1-6.41,4l-.07-.08c-3.08-3.26-6-6.69-9-9.88s-6-6.45-8.47-7.87c-3.48-2.17-7.35-4.32-11.19-6.44l-11.57-6.42h0A7.65,7.65,0,0,1,609.57,274Z" transform="translate(-206.09 -232.83)"/><path class="cls-14" d="M609.57,274c4.22,2.13,8.2,4.38,12.16,6.88,2,1.25,3.94,2.52,5.88,3.9s3.88,2.78,5.81,4.38l.73.59.9.82a18.33,18.33,0,0,1,1.59,1.61c.49.54.9,1.05,1.31,1.57s.81,1,1.17,1.54a67.69,67.69,0,0,1,4,6.15,90.94,90.94,0,0,1,6.07,12.77,3.86,3.86,0,0,1-6.41,4l-.07-.08c-3.08-3.26-6-6.69-9-9.88s-6-6.45-8.47-7.87c-3.48-2.17-7.35-4.32-11.19-6.44l-11.57-6.42h0A7.65,7.65,0,0,1,609.57,274Z" transform="translate(-206.09 -232.83)"/><path class="cls-5" d="M652.83,321.73l-1.3-3.26s-.72-4.17-3.31-5.33l-7.71,1.22.27.67h0c.71,1.58.17,4.32-.53,6.56s.49,2.52,1.46,2.09c.56-.25,1.08-1.24,1.68-2.31a10.76,10.76,0,0,0,1,1.6l1.88,2.59a2.61,2.61,0,0,0,3.52.66l2.08-1.32A2.61,2.61,0,0,0,652.83,321.73Z" transform="translate(-206.09 -232.83)"/><path class="cls-14" d="M652.83,321.73l-1.3-3.26s-.72-4.17-3.31-5.33l-7.71,1.22.27.67h0c.71,1.58.17,4.32-.53,6.56s.49,2.52,1.46,2.09c.56-.25,1.08-1.24,1.68-2.31a10.76,10.76,0,0,0,1,1.6l1.88,2.59a2.61,2.61,0,0,0,3.52.66l2.08-1.32A2.61,2.61,0,0,0,652.83,321.73Z" transform="translate(-206.09 -232.83)"/><path class="cls-13" d="M603.11,291.61l-1.86.15-11.46,27.67a6,6,0,0,0,1.87-.15s14.93-5.56,19.45-7.6C608.07,305.37,603.11,291.61,603.11,291.61Z" transform="translate(-206.09 -232.83)"/><path class="cls-16" d="M582.2,298.87c.64,5,4.37,15.58,7.59,20.56,5.6-1.93,14.94-5.56,19.46-7.6a205.35,205.35,0,0,1-8-20.07C596.43,292.09,585.93,296,582.2,298.87Z" transform="translate(-206.09 -232.83)"/><path class="cls-13" d="M593.57,304.86a3.95,3.95,0,1,1-2.65-4.92A4,4,0,0,1,593.57,304.86Z" transform="translate(-206.09 -232.83)"/><path class="cls-18" d="M596.5,299.58a1.29,1.29,0,1,1-.87-1.6A1.29,1.29,0,0,1,596.5,299.58Z" transform="translate(-206.09 -232.83)"/><path class="cls-18" d="M599.91,298.26a1.28,1.28,0,0,1-1.61.86,1.29,1.29,0,1,1,.74-2.47A1.28,1.28,0,0,1,599.91,298.26Z" transform="translate(-206.09 -232.83)"/><polygon class="cls-19" points="398.63 77.34 384.49 82.93 383.63 80.15 397.78 74.56 398.63 77.34"/><path class="cls-11" d="M526.64,522.82q-.45,17.31-2.57,26.55-2.7,11.79-8.41,17.25a18.81,18.81,0,0,1-13.48,5.47q-11.81,0-18-12.87a34.32,34.32,0,0,1-1.85-4.76A220.43,220.43,0,0,0,458,579l-8.13,9.58a59.5,59.5,0,0,0,14.95,11q14.3,7.38,37.52,7.4c2.72,0,5.35-.07,7.91-.23a219.3,219.3,0,0,0,23.1-44.4L556,503.1Z" transform="translate(-206.09 -232.83)"/><path class="cls-15" d="M321.82,603.59l26.78,26.78,75-70.64C397.78,549.92,347.48,577.93,321.82,603.59Z" transform="translate(-206.09 -232.83)"/><path class="cls-15" d="M415.2,697l-26.78-26.78,70.64-75C468.87,621,440.86,671.31,415.2,697Z" transform="translate(-206.09 -232.83)"/><path class="cls-5" d="M517.68,528.22l29.21-56.32-56.32,29.21a220.85,220.85,0,0,0-49.64,35.2l-96,90.38,47.18,47.18,90.38-96A220.85,220.85,0,0,0,517.68,528.22Z" transform="translate(-206.09 -232.83)"/><path class="cls-20" d="M517.68,528.22l29.21-56.32-56.32,29.21a220.85,220.85,0,0,0-49.64,35.2l-96,90.38,47.18,47.18,90.38-96A220.85,220.85,0,0,0,517.68,528.22Z" transform="translate(-206.09 -232.83)"/><circle class="cls-16" cx="251.61" cy="328.26" r="19.74"/><circle class="cls-5" cx="251.61" cy="328.26" r="12.68"/><polygon class="cls-13" points="201.96 424.09 155.78 377.91 193.59 342.32 237.55 386.28 201.96 424.09"/><path class="cls-5" d="M332.27,645.91c-34.59,2.81-46,24.94-49.95,54.37-2,15-2.88,30.19-15.48,39a4.23,4.23,0,0,0,2.5,7.74c46.42-1.45,68.07-24.18,70.79-33.7a65.07,65.07,0,0,1-3.81,14.5,4.23,4.23,0,0,0,6.16,5.19c13-8.17,29.38-23.19,30.47-47.55C363.31,671.9,332.27,645.91,332.27,645.91Z" transform="translate(-206.09 -232.83)"/><path class="cls-12" d="M332.27,645.91c-34.59,2.81-46,24.94-49.95,54.37-2,15-2.88,30.19-15.48,39a4.23,4.23,0,0,0,2.5,7.74c46.42-1.45,68.07-24.18,70.79-33.7a65.07,65.07,0,0,1-3.81,14.5,4.23,4.23,0,0,0,6.16,5.19c13-8.17,29.38-23.19,30.47-47.55C363.31,671.9,332.27,645.91,332.27,645.91Z" transform="translate(-206.09 -232.83)"/><polygon class="cls-5" points="172.17 463.08 116.78 407.7 146.29 401.32 178.55 433.58 172.17 463.08"/></svg>