<svg width="118" height="22" viewBox="0 0 118 22" fill="none" xmlns="http://www.w3.org/2000/svg">
<rect x="2" y="5" width="24" height="12" fill="white"/>
<path d="M28.0227 4.08479C27.6827 2.87791 26.7415 1.93136 25.5293 1.59676C23.2971 1.00003 14.3237 1.00003 14.3237 1.00003C14.3237 1.00003 5.36735 0.985714 3.11193 1.59676C1.90594 1.93226 0.960293 2.87791 0.623903 4.08479C0.200732 6.37242 -0.00951107 8.68778 0.00033012 11.0139C-0.00414315 13.3248 0.205206 15.6366 0.623903 17.9099C0.960293 19.1168 1.90594 20.0633 3.11193 20.4033C5.34409 21 14.3237 21 14.3237 21C14.3237 21 23.2747 21 25.5293 20.4033C26.7415 20.0633 27.6827 19.1177 28.0227 17.9099C28.4333 15.6366 28.6337 13.3248 28.6194 11.0139C28.6337 8.68778 28.4378 6.37242 28.0227 4.08479ZM11.4573 15.2966V6.71239L18.9267 11.0139L11.4573 15.2966Z" fill="#FF0000"/>
<path d="M33.575 21V0.749998H37.25V9.225H41.375V0.749998H45.075V21H41.375V11.85H37.25V21H33.575ZM51.0484 21.225C49.9318 21.225 49.0318 21.0167 48.3484 20.6C47.6818 20.1667 47.1901 19.5583 46.8734 18.775C46.5734 17.975 46.4234 17.0333 46.4234 15.95V11.6C46.4234 10.4833 46.5734 9.53333 46.8734 8.75C47.1901 7.96667 47.6901 7.36667 48.3734 6.95C49.0568 6.53333 49.9484 6.325 51.0484 6.325C52.0818 6.325 52.9234 6.49167 53.5734 6.825C54.2401 7.14167 54.7234 7.63333 55.0234 8.3C55.3234 8.95 55.4734 9.775 55.4734 10.775V11.975H52.2734V10.7C52.2734 10.2 52.2318 9.80833 52.1484 9.525C52.0818 9.225 51.9568 9.01667 51.7734 8.9C51.5901 8.76667 51.3484 8.7 51.0484 8.7C50.7484 8.7 50.5068 8.78333 50.3234 8.95C50.1401 9.1 50.0068 9.35 49.9234 9.7C49.8568 10.05 49.8234 10.5333 49.8234 11.15V16.45C49.8234 17.3833 49.9234 18.0167 50.1234 18.35C50.3234 18.6667 50.6401 18.825 51.0734 18.825C51.4068 18.825 51.6568 18.75 51.8234 18.6C52.0068 18.45 52.1234 18.2333 52.1734 17.95C52.2401 17.65 52.2734 17.2917 52.2734 16.875V15.325H55.4734V16.7C55.4734 17.6667 55.3151 18.4917 54.9984 19.175C54.6984 19.8583 54.2151 20.375 53.5484 20.725C52.8984 21.0583 52.0651 21.225 51.0484 21.225ZM56.5592 21V6.55H59.9592V21H56.5592ZM56.5592 4.25V1.425H59.9592V4.25H56.5592ZM63.6604 21V3.475H60.4354V0.749998H70.5354V3.475H67.3604V21H63.6604ZM73.2275 21.225C72.6609 21.225 72.1942 21.0833 71.8275 20.8C71.4609 20.5 71.1942 20.1083 71.0275 19.625C70.8609 19.125 70.7775 18.6 70.7775 18.05V6.55H74.1775V17.425C74.1775 17.8583 74.2442 18.2 74.3775 18.45C74.5275 18.6833 74.7942 18.8 75.1775 18.8C75.4275 18.8 75.6775 18.7333 75.9275 18.6C76.1942 18.4667 76.4525 18.3083 76.7025 18.125V6.55H80.1025V21H76.7025V19.625C76.2192 20.0917 75.6859 20.475 75.1025 20.775C74.5192 21.075 73.8942 21.225 73.2275 21.225ZM87.6939 21.225C87.1606 21.225 86.6606 21.1 86.1939 20.85C85.7273 20.6 85.2939 20.2917 84.8939 19.925V21H81.4939V0.749998H84.8939V7.65C85.3106 7.25 85.7606 6.93333 86.2439 6.7C86.7439 6.45 87.2773 6.325 87.8439 6.325C88.4939 6.325 89.0273 6.475 89.4439 6.775C89.8606 7.075 90.1856 7.475 90.4189 7.975C90.6523 8.45833 90.8106 8.98333 90.8939 9.55C90.9939 10.1 91.0439 10.6333 91.0439 11.15V16.05C91.0439 17 90.9273 17.8667 90.6939 18.65C90.4773 19.4333 90.1189 20.0583 89.6189 20.525C89.1356 20.9917 88.4939 21.225 87.6939 21.225ZM86.3939 18.85C86.7606 18.85 87.0273 18.7333 87.1939 18.5C87.3773 18.25 87.4939 17.925 87.5439 17.525C87.6106 17.1083 87.6439 16.6583 87.6439 16.175V11C87.6439 10.55 87.6106 10.15 87.5439 9.8C87.4773 9.43333 87.3523 9.14167 87.1689 8.925C87.0023 8.70833 86.7356 8.6 86.3689 8.6C86.1023 8.6 85.8439 8.66667 85.5939 8.8C85.3439 8.91667 85.1106 9.05 84.8939 9.2V18.325C85.1106 18.475 85.3439 18.6 85.5939 18.7C85.8606 18.8 86.1273 18.85 86.3939 18.85ZM96.508 21.225C95.4247 21.225 94.5413 21.025 93.858 20.625C93.1747 20.2083 92.6663 19.6083 92.333 18.825C92.0163 18.025 91.858 17.0667 91.858 15.95V11.6C91.858 10.45 92.0163 9.48333 92.333 8.7C92.6663 7.91667 93.1747 7.325 93.858 6.925C94.558 6.525 95.4413 6.325 96.508 6.325C97.658 6.325 98.5497 6.54167 99.183 6.975C99.833 7.40833 100.291 8.04167 100.558 8.875C100.841 9.69167 100.983 10.6917 100.983 11.875V13.925H95.233V16.775C95.233 17.2417 95.2747 17.625 95.358 17.925C95.458 18.225 95.608 18.4417 95.808 18.575C96.008 18.7083 96.2497 18.775 96.533 18.775C96.833 18.775 97.0747 18.7083 97.258 18.575C97.4413 18.425 97.5747 18.2167 97.658 17.95C97.7413 17.6667 97.783 17.3167 97.783 16.9V15.7H100.958V16.675C100.958 18.1417 100.591 19.2667 99.858 20.05C99.1247 20.8333 98.008 21.225 96.508 21.225ZM95.233 12.25H97.783V10.875C97.783 10.375 97.7413 9.975 97.658 9.675C97.5747 9.35833 97.4413 9.13333 97.258 9C97.0747 8.85 96.8163 8.775 96.483 8.775C96.183 8.775 95.9413 8.85 95.758 9C95.5747 9.15 95.4413 9.4 95.358 9.75C95.2747 10.1 95.233 10.6 95.233 11.25V12.25Z" fill="black"/>
<rect x="55" width="5" height="5" fill="white"/>
</svg>
